<svg xmlns="http://www.w3.org/2000/svg" width="2000" height="1400"><path fill="#fff" d="M0 0h2000v1400H0z"/><rect x="1238" y="1118" width="10" height="29" fill="#0C7B93" rx="0" transform="matrix(-.2746 .9604 -.95201 -.31205 2525.076 466.812)"/><rect x="1409" y="1249" width="7" height="14" fill="#27496D" rx="0" transform="matrix(-.52203 .63716 -.9248 -.78683 3653.035 1567.985)"/><rect x="1624" y="635" width="9" height="9" fill="#142850" rx="0" transform="matrix(-.99027 0 -.06856 -1.00983 3224.273 1514.155)"/><rect x="395" y="332" width="7" height="13" fill="#00A8CC" rx="0" transform="matrix(-.12094 .95762 -1.00728 -.29277 860.986 35.109)"/><rect x="407" y="805" width="7" height="8" fill="#0C7B93" rx="0" transform="matrix(-.33508 .89691 -.90556 -.56045 1163.956 1035.57)"/><rect x="1156" y="1198" width="8" height="20" fill="#0C7B93" rx="0" transform="matrix(-.27727 .98829 -.96793 -.15653 2548.757 210.163)"/><rect x="593" y="380" width="13" height="24" fill="#27496D" rx="0" transform="matrix(.96598 .55483 -.31486 .85437 179.38 -159.003)"/><rect x="674" y="1066" width="12" height="26" fill="#142850" rx="0" transform="matrix(.5429 .95036 -.81052 .42313 1051.474 171.186)"/><rect x="1569" y="905" width="10" height="18" fill="#0C7B93" rx="0" transform="matrix(.60704 .9955 -.84187 .26674 1548.395 -504.272)"/><rect x="1825" y="905" width="11" height="31" fill="#142850" rx="0" transform="matrix(-.9875 .05234 -.2646 -.99863 4077.352 1743.938)"/><rect x="781" y="560" width="9" height="22" fill="#142850" rx="0" transform="matrix(-.31264 .91 -.94642 -.44384 1699.54 -14.784)"/><rect x="460" y="125" width="7" height="20" fill="#0C7B93" rx="0" transform="matrix(-.08716 .99467 -.9962 -.10454 638.383 -303.827)"/><rect x="273" y="614" width="13" height="37" fill="#00A8CC" rx="0" transform="matrix(-.93146 .1409 -.46916 -1.00261 955.919 1271.537)"/><rect x="764" y="1361" width="13" height="36" fill="#142850" rx="0" transform="matrix(1.02011 .52285 -.14572 .9056 326.71 -37.104)"/><rect x="1070" y="956" width="7" height="13" fill="#00A8CC" rx="0" transform="matrix(-.93913 .37512 -.34139 -.92846 2321.11 1509.707)"/><rect x="983" y="1138" width="11" height="12" fill="#27496D" rx="0" transform="matrix(-.88922 .47062 -.45248 -.8851 2279.002 1760.475)"/><rect x="1298" y="1142" width="7" height="20" fill="#142850" rx="0" transform="matrix(.96685 .22581 -.24062 .9781 392.94 -382.52)"/><rect x="360" y="981" width="8" height="19" fill="#0C7B93" rx="0" transform="matrix(-.03542 1.00554 -.9895 -.14132 1283.249 828.642)"/><rect x="1431" y="190" width="13" height="17" fill="#142850" rx="0" transform="matrix(-.92594 .12307 -.58449 -1.0023 3014.697 422.575)"/><rect x="1439" y="658" width="8" height="22" fill="#00A8CC" rx="0" transform="matrix(-.73879 .63903 -.65255 -.78913 3033.744 20.373)"/><rect x="1726" y="275" width="9" height="22" fill="#00A8CC" rx="0" transform="matrix(-.69248 .43556 -.81088 -.93405 3300.214 230.871)"/><rect x="181" y="825" width="10" height="12" fill="#00A8CC" rx="0" transform="matrix(-.14054 1 -.9516 -.34433 877.136 995.181)"/><rect x="226" y="456" width="13" height="37" fill="#0C7B93" rx="0" transform="matrix(.10396 .98805 -1.04993 -.35962 783.825 490.962)"/><rect x="1856" y="586" width="12" height="14" fill="#00A8CC" rx="0" transform="matrix(-.7347 .48488 -.73691 -.87475 3838.368 176.374)"/><rect x="1472" y="1135" width="11" height="17" fill="#0C7B93" rx="0" transform="matrix(-.35837 .90852 -.93358 -.42365 3074.538 388.921)"/><rect x="294" y="956" width="9" height="15" fill="#0C7B93" rx="0" transform="matrix(-.14029 1.00861 -1.00373 .08824 1243.405 530.13)"/><rect x="669" y="1149" width="11" height="20" fill="#27496D" rx="0" transform="matrix(-.8622 .35924 -.53753 -.93586 2027.146 2048.518)"/><rect x="1201" y="1366" width="11" height="12" fill="#00A8CC" rx="0" transform="matrix(.66913 .89763 -.74314 .49756 1418.789 -115.098)"/><rect x="1026" y="1067" width="8" height="9" fill="#00A8CC" rx="0" transform="matrix(-.45803 .61308 -1.02328 -.81358 3036.106 1511.995)"/><rect x="668" y="139" width="9" height="12" fill="#00A8CC" rx="0" transform="matrix(-.01666 .98776 -1.01593 .20995 826.598 -644.226)"/><rect x="263" y="575" width="13" height="13" fill="#142850" rx="0" transform="matrix(.75437 .64318 -.65575 .76651 457.502 -46.974)"/><rect x="136" y="496" width="10" height="19" fill="#27496D" rx="0" transform="matrix(.99498 .06977 -.10457 .99772 44.788 -11.144)"/><rect x="1225" y="145" width="10" height="21" fill="#142850" rx="0" transform="matrix(1.08053 .24494 .2511 .9824 -17.481 -103.722)"/><rect x="446" y="1336" width="13" height="36" fill="#0C7B93" rx="0" transform="matrix(-.60885 .69476 -.80886 -.71945 2060.55 2005.855)"/><rect x="661" y="682" width="13" height="27" fill="#142850" rx="0" transform="matrix(-.86468 .26281 -.57797 -.98083 1775.449 1319.936)"/><rect x="88" y="210" width="11" height="31" fill="#00A8CC" rx="0" transform="matrix(-.73103 .66954 -.68168 -.7436 311.576 333.845)"/><rect x="810" y="704" width="12" height="33" fill="#0C7B93" rx="0" transform="matrix(-.26076 .92718 -.97318 -.3746 1818.425 233.822)"/><rect x="251" y="1177" width="7" height="9" fill="#0C7B93" rx="0" transform="matrix(.8113 .89763 -.66434 .49756 1029.377 423.94)"/><rect x="1836" y="1048" width="13" height="38" fill="#142850" rx="0" transform="matrix(.98514 .17535 -.1157 .99449 307.906 -576.154)"/><rect x="1236" y="1338" width="7" height="8" fill="#00A8CC" rx="0" transform="matrix(1.0943 .33284 .17366 .96664 140.892 -104.327)"/><rect x="1541" y="1105" width="11" height="23" fill="#142850" rx="0" transform="matrix(-.99248 .25898 -.15737 -.96651 3182.772 1741.101)"/><rect x="1942" y="415" width="9" height="11" fill="#00A8CC" rx="0" transform="matrix(.96952 .1576 -.22349 .9951 162.814 -543.729)"/><rect x="1178" y="1134" width="9" height="23" fill="#27496D" rx="0" transform="matrix(.79864 .69988 -.60182 .72474 927.493 -367.101)"/><rect x="1331" y="1105" width="9" height="16" fill="#142850" rx="0" transform="matrix(.87661 .94472 -.68642 .401 1363.305 -286.67)"/><rect x="1808" y="401" width="10" height="26" fill="#142850" rx="0" transform="matrix(-.7046 .39946 -.84342 -.94107 3668.847 464.746)"/><rect x="1444" y="709" width="8" height="14" fill="#27496D" rx="0" transform="matrix(-.10296 .98402 -.99622 -.19127 2407.753 -673.168)"/><rect x="999" y="721" width="13" height="14" fill="#27496D" rx="0" transform="matrix(1.05379 .60513 -.25412 .80303 401.795 -359.385)"/><rect x="214" y="30" width="13" height="30" fill="#142850" rx="0" transform="matrix(.86056 .6411 -.49712 .7917 50.049 -89.128)"/><rect x="172" y="720" width="12" height="29" fill="#0C7B93" rx="0" transform="matrix(.9603 .6687 -.35101 .79692 319.814 81.18)"/><rect x="277" y="108" width="7" height="14" fill="#142850" rx="0" transform="matrix(-.83589 .26281 -.68543 -.98083 637.858 203.536)"/><rect x="1544" y="1387" width="11" height="19" fill="#00A8CC" rx="0" transform="matrix(-.6971 .74047 -.70044 -.6905 3749.15 968.007)"/><rect x="1466" y="67" width="11" height="14" fill="#142850" rx="0" transform="matrix(-.00975 .92955 -1.07165 -.39457 1640.386 -1057.83)"/><rect x="1765" y="1137" width="9" height="20" fill="#27496D" rx="0" transform="matrix(.78558 .74047 -.61793 .6905 1353.176 -1235.526)"/><rect x="782" y="982" width="12" height="24" fill="#00A8CC" rx="0" transform="matrix(-.44789 .87036 -.86908 -.54386 1839.54 1030.68)"/><rect x="105" y="808" width="9" height="26" fill="#27496D" rx="0" transform="matrix(1.14977 .68604 -.135 .7892 388.652 131.429)"/><rect x="25" y="613" width="10" height="22" fill="#00A8CC" rx="0" transform="matrix(.2652 .99756 -.97924 .08728 776.79 538.041)"/><rect x="855" y="326" width="13" height="22" fill="#0C7B93" rx="0" transform="matrix(-.94134 .10648 -.43476 -1.01314 1889.875 754.149)"/><rect x="1638" y="780" width="7" height="16" fill="#142850" rx="0" transform="matrix(-.5332 .69466 -.8874 -.71934 3427.178 214.558)"/><rect x="620" y="900" width="7" height="8" fill="#142850" rx="0" transform="matrix(-1.00476 -.03495 -.1581 -1.00076 1524.531 1863.155)"/><rect x="1342" y="356" width="11" height="29" fill="#27496D" rx="0" transform="matrix(.15608 .97974 -.98465 .22619 1509.983 -1175.127)"/><rect x="197" y="383" width="10" height="16" fill="#27496D" rx="0" transform="matrix(.22487 .96185 -.97519 .2758 503.05 95.92)"/><rect x="529" y="1311" width="10" height="19" fill="#142850" rx="0" transform="matrix(-.80613 .80648 -.63249 -.60773 1646.75 1617.295)"/><rect x="1429" y="649" width="8" height="12" fill="#27496D" rx="0" transform="matrix(-.20591 .86785 -1.02855 -.52146 2573.207 -20.112)"/><rect x="241" y="1172" width="13" height="30" fill="#00A8CC" rx="0" transform="matrix(.36589 1.0513 -.95759 -.01835 1382.227 1029.002)"/><rect x="1652" y="387" width="11" height="17" fill="#00A8CC" rx="0" transform="matrix(-.66671 .90211 -.7688 -.45965 3055 -1180.483)"/><rect x="1792" y="97" width="12" height="25" fill="#27496D" rx="0" transform="matrix(-.86414 .486 -.49869 -.87676 3394.003 -542.583)"/><rect x="1517" y="140" width="10" height="17" fill="#0C7B93" rx="0" transform="matrix(1.06945 .3525 .10132 .96846 -8.519 -152.33)"/><rect x="906" y="450" width="11" height="16" fill="#0C7B93" rx="0" transform="matrix(-.4899 .769 -.84357 -.7171 1678.415 381.659)"/><rect x="813" y="550" width="10" height="20" fill="#27496D" rx="0" transform="matrix(.86645 .53 -.50019 .84818 417.952 -362.798)"/><rect x="636" y="696" width="8" height="14" fill="#27496D" rx="0" transform="matrix(-.40596 .87253 -.91171 -.50375 1527.106 577.303)"/><rect x="444" y="117" width="10" height="27" fill="#0C7B93" rx="0" transform="matrix(-.82904 .28982 -.5592 -1.01073 894.213 278.16)"/><rect x="824" y="484" width="13" height="18" fill="#27496D" rx="0" transform="matrix(-.01617 .98223 -1.01495 -.19093 1442.929 -257.614)"/><rect x="670" y="852" width="9" height="16" fill="#142850" rx="0" transform="matrix(-.54013 .94913 -.86762 -.32681 1672.394 441.859)"/><rect x="428" y="153" width="7" height="10" fill="#00A8CC" rx="0" transform="matrix(-.90095 .47671 -.40325 -.89657 892.584 17.87)"/><rect x="946" y="881" width="10" height="20" fill="#142850" rx="0" transform="matrix(-.9384 .05503 -.2665 -1.05002 1975.881 2083.235)"/><rect x="763" y="1100" width="12" height="21" fill="#0C7B93" rx="0" transform="matrix(.96623 .37483 -.27635 .92775 485.156 -234.867)"/><rect x="1308" y="91" width="8" height="10" fill="#00A8CC" rx="0" transform="matrix(-.65606 .61526 -.75471 -.81648 2245.202 -353.965)"/><rect x="818" y="1143" width="11" height="23" fill="#00A8CC" rx="0" transform="matrix(-.76864 .70808 -.64363 -.70808 2031.23 1432.031)"/><rect x="89" y="1166" width="9" height="23" fill="#00A8CC" rx="0" transform="matrix(-.97469 -.15885 .1414 -1.00293 -170.968 2389.783)"/><rect x="866" y="126" width="9" height="26" fill="#0C7B93" rx="0" transform="matrix(.98927 .05234 -.22795 .99878 21.413 -60.59)"/><rect x="507" y="869" width="9" height="15" fill="#142850" rx="0" transform="matrix(.23255 .98395 -1.07 -.22716 1638.56 644.206)"/><rect x="1770" y="356" width="12" height="33" fill="#0C7B93" rx="0" transform="matrix(-.61861 .48015 -.8686 -.94235 3354.057 482.304)"/><rect x="1497" y="615" width="11" height="19" fill="#00A8CC" rx="0" transform="matrix(.08729 .98496 -.99988 .17367 1927.385 -937.633)"/><rect x="1027" y="683" width="11" height="22" fill="#142850" rx="0" transform="matrix(.53207 .88223 -.8263 .50936 930.846 -369.704)"/><rect x="798" y="1133" width="11" height="15" fill="#142850" rx="0" transform="matrix(-.98942 .12254 -.10241 -.99801 1564.89 2264.724)"/><rect x="1484" y="406" width="9" height="14" fill="#0C7B93" rx="0" transform="matrix(-.47671 .95106 -.89657 -.30902 2495.548 -875.024)"/><rect x="847" y="685" width="11" height="32" fill="#00A8CC" rx="0" transform="matrix(-.92701 .09023 -.48697 -1.03134 2114.762 1575.472)"/><rect x="453" y="310" width="10" height="14" fill="#142850" rx="0" transform="matrix(-.01055 .91858 -1.08394 -.40898 925.083 74.075)"/><rect x="681" y="996" width="7" height="16" fill="#00A8CC" rx="0" transform="matrix(-.2643 .89934 -.98302 -.43864 2015.165 852.697)"/><rect x="1139" y="1119" width="10" height="14" fill="#00A8CC" rx="0" transform="matrix(.03492 .99756 -1 .06976 2190.73 -93.76)"/><rect x="27" y="189" width="8" height="8" fill="#27496D" rx="0" transform="matrix(.1376 1.01527 -.98256 .01772 205.966 163.572)"/><rect x="997" y="1324" width="12" height="25" fill="#27496D" rx="0" transform="matrix(-.04502 1.01295 -.98406 -.07083 2588.773 238.32)"/><rect x="1658" y="736" width="7" height="8" fill="#0C7B93" rx="0" transform="matrix(.40748 1.0069 -.97892 .03516 1944.238 -754.97)"/><rect x="1235" y="193" width="9" height="24" fill="#00A8CC" rx="0" transform="matrix(.88842 .84423 -.56243 .59114 335.015 -653.563)"/><rect x="294" y="1243" width="7" height="13" fill="#142850" rx="0" transform="matrix(-.0196 .8917 -1.10922 -.55719 2024.936 1777.095)"/><rect x="1731" y="831" width="8" height="16" fill="#27496D" rx="0" transform="matrix(.71605 .68575 -.69037 .73538 1129.316 -1150.126)"/><rect x="1575" y="929" width="7" height="19" fill="#00A8CC" rx="0" transform="matrix(.88182 .45965 -.4449 .90211 713.139 -883.7)"/><rect x="893" y="224" width="8" height="19" fill="#0C7B93" rx="0" transform="matrix(1.00035 .33413 -.08759 .97039 27.825 -85.714)"/><rect x="644" y="906" width="10" height="15" fill="#27496D" rx="0" transform="matrix(.87243 .53194 -.48372 .85129 490.786 -152.602)"/><rect x="1519" y="1123" width="9" height="20" fill="#142850" rx="0" transform="matrix(-.01716 1.00367 -.99665 .01752 2731.23 -549.225)"/><rect x="1238" y="83" width="12" height="25" fill="#00A8CC" rx="0" transform="matrix(.61202 .87401 -.76172 .54614 505.576 -733.76)"/><rect x="1137" y="622" width="13" height="33" fill="#00A8CC" rx="0" transform="matrix(.38746 .89657 -.90935 .47671 1319.284 -892.738)"/><rect x="1504" y="334" width="13" height="15" fill="#0C7B93" rx="0" transform="matrix(1.05942 .37902 .12149 .98737 5.222 -48.087)"/><rect x="28" y="167" width="13" height="28" fill="#0C7B93" rx="0" transform="matrix(.13929 .98083 -1.05687 -.26281 264.18 200.814)"/><rect x="1661" y="460" width="11" height="14" fill="#00A8CC" rx="0" transform="matrix(-.44919 .76079 -.88065 -.73469 2789.986 116.066)"/><rect x="1685" y="902" width="9" height="16" fill="#27496D" rx="0" transform="matrix(-.98717 .01758 -.3168 -1.00736 3842.64 2004.432)"/><rect x="1661" y="123" width="12" height="35" fill="#27496D" rx="0" transform="matrix(1.07327 .41301 -.01064 .92764 -12.331 -384.386)"/><rect x="358" y="375" width="13" height="29" fill="#0C7B93" rx="0" transform="matrix(.98038 -.03533 .22654 1.01185 33.152 -49.467)"/><rect x="1121" y="540" width="9" height="21" fill="#142850" rx="0" transform="matrix(-.6699 .5886 -.77694 -.81013 2448.111 275.03)"/><rect x="1319" y="308" width="8" height="12" fill="#142850" rx="0" transform="matrix(.35204 .98857 -.94949 .17431 1208.51 -1164.359)"/><rect x="1979" y="60" width="13" height="30" fill="#0C7B93" rx="0" transform="matrix(1.01164 -.12375 -.15827 1.00786 17.68 -104.982)"/><rect x="171" y="1063" width="13" height="34" fill="#27496D" rx="0" transform="matrix(-.32542 .81697 -.9876 -.59356 1496.71 1600.98)"/><rect x="897" y="70" width="11" height="15" fill="#0C7B93" rx="0" transform="matrix(.96618 .682 -.43017 .73135 90.542 -594.683)"/><rect x="318" y="960" width="9" height="26" fill="#00A8CC" rx="0" transform="matrix(-.0416 .93586 -1.05256 -.35924 1626.82 1043.28)"/><rect x="104" y="336" width="7" height="19" fill="#0C7B93" rx="0" transform="matrix(1.05022 .26205 .10334 .97797 35.953 -3.53)"/><rect x="1513" y="1255" width="9" height="23" fill="#0C7B93" rx="0" transform="matrix(-.92108 .3306 -.34988 -.9601 3142.758 2248.378)"/><rect x="1858" y="701" width="9" height="16" fill="#142850" rx="0" transform="matrix(.62922 .77726 -.77703 .62942 1228.549 -1152.4)"/><rect x="404" y="172" width="7" height="17" fill="#00A8CC" rx="0" transform="matrix(-.8569 .47012 -.51555 -.88416 866.468 127.162)"/><rect x="739" y="214" width="7" height="16" fill="#0C7B93" rx="0" transform="matrix(-.30067 1.01404 -1.00192 .05314 1172.114 -673.642)"/><rect x="765" y="140" width="10" height="28" fill="#142850" rx="0" transform="matrix(-1.00394 -.0885 -.17566 -1.01156 1595.435 513.698)"/><rect x="678" y="897" width="9" height="15" fill="#27496D" rx="0" transform="matrix(-.15713 .99384 -.94901 -.36173 1487.972 788.392)"/><rect x="1660" y="256" width="10" height="23" fill="#00A8CC" rx="0" transform="matrix(-.65506 .62942 -.77984 -.77726 3016.576 -543.497)"/><rect x="520" y="350" width="12" height="28" fill="#00A8CC" rx="0" transform="matrix(.40836 .99004 -.88521 .30269 571.422 -125.997)"/><rect x="629" y="158" width="8" height="22" fill="#0C7B93" rx="0" transform="matrix(.3484 .99497 -.96228 .12217 608.867 -437.198)"/><rect x="1718" y="182" width="10" height="15" fill="#142850" rx="0" transform="matrix(-.27564 1 -.96126 -.14054 2380.082 -1749.02)"/><rect x="1053" y="1012" width="7" height="18" fill="#142850" rx="0" transform="matrix(-.97318 .0698 -.4097 -.99817 2826.402 2003.285)"/><rect x="1170" y="354" width="9" height="18" fill="#142850" rx="0" transform="matrix(.30853 .94199 -.94929 .34286 1166.529 -949.95)"/><rect x="939" y="381" width="9" height="10" fill="#0C7B93" rx="0" transform="matrix(-.48706 .74136 -.87852 -.71592 1752.994 198.113)"/><rect x="199" y="1132" width="13" height="37" fill="#142850" rx="0" transform="matrix(.58363 .81347 -.80526 .59102 888.827 324.958)"/><rect x="1822" y="730" width="8" height="20" fill="#00A8CC" rx="0" transform="matrix(.10314 .98162 -1.05831 -.37681 2631.994 -180.303)"/><rect x="986" y="979" width="8" height="12" fill="#27496D" rx="0" transform="matrix(.12764 .97452 -1.05562 -.22499 2248.53 259.118)"/><rect x="211" y="1061" width="12" height="28" fill="#00A8CC" rx="0" transform="matrix(-.37153 .73826 -.99575 -.71293 1586.748 1731.296)"/><rect x="1861" y="28" width="12" height="32" fill="#00A8CC" rx="0" transform="matrix(.78291 .39676 -.676 .9347 475.134 -1067.078)"/><rect x="1103" y="529" width="11" height="12" fill="#0C7B93" rx="0" transform="matrix(-.62219 .68366 -.7955 -.73314 2277.37 246.902)"/><rect x="1754" y="25" width="9" height="15" fill="#0C7B93" rx="0" transform="matrix(.19096 .97089 -.98237 .24207 1455.12 -1744.08)"/><rect x="265" y="1035" width="13" height="25" fill="#0C7B93" rx="0" transform="matrix(-.94597 .20842 -.3476 -.98054 1111.05 1999.04)"/><rect x="1531" y="536" width="13" height="38" fill="#00A8CC" rx="0" transform="matrix(-.29237 .98188 -.9563 -.2087 2517.77 -973.329)"/><rect x="1554" y="429" width="13" height="17" fill="#0C7B93" rx="0" transform="matrix(.55591 .91266 -.82456 .44513 1028.854 -906.293)"/><rect x="1469" y="827" width="11" height="25" fill="#27496D" rx="0" transform="matrix(.26156 1.01185 -.97916 .03533 1985.86 -448.596)"/><rect x="51" y="238" width="7" height="17" fill="#27496D" rx="0" transform="matrix(.14039 1.00368 -1.00862 -.08781 322.085 220.137)"/><rect x="239" y="1332" width="13" height="21" fill="#27496D" rx="0" transform="matrix(-.20585 .94283 -.96465 -.43965 1517.027 1771.66)"/><rect x="736" y="852" width="10" height="19" fill="#27496D" rx="0" transform="matrix(.99863 0 .29246 1.00137 32.324 -40.016)"/><rect x="1260" y="313" width="13" height="17" fill="#00A8CC" rx="0" transform="matrix(1.0289 .26024 -.0026 .97125 36.23 -187.241)"/><rect x="103" y="887" width="12" height="24" fill="#00A8CC" rx="0" transform="matrix(.47153 .83018 -.88651 .55996 807.764 299.394)"/><rect x="702" y="857" width="13" height="19" fill="#27496D" rx="0" transform="matrix(-.34269 .811 -.98408 -.58922 2015.485 852.015)"/><rect x="37" y="1243" width="13" height="27" fill="#00A8CC" rx="0" transform="matrix(-.55619 .6617 -.8244 -.81714 1081.383 2268.586)"/><rect x="1465" y="83" width="10" height="27" fill="#142850" rx="0" transform="matrix(.20098 1.01472 -.96082 .1246 1217.07 -1094.704)"/><rect x="1581" y="825" width="10" height="10" fill="#142850" rx="0" transform="matrix(.81708 .6355 -.56454 .78478 887.727 -1052.18)"/><rect x="1573" y="1387" width="8" height="9" fill="#0C7B93" rx="0" transform="matrix(.31397 .98829 -.96212 .15653 2680.43 -439.915)"/><rect x="764" y="74" width="9" height="23" fill="#142850" rx="0" transform="matrix(.3401 .94328 -.93634 .34333 573.834 -601.532)"/><rect x="540" y="79" width="8" height="8" fill="#0C7B93" rx="0" transform="matrix(.39247 .87582 -.92424 .48547 404.352 -462.25)"/><rect x="1636" y="1072" width="9" height="19" fill="#00A8CC" rx="0" transform="matrix(.4563 1.00861 -.95154 .08824 2206.123 -408.733)"/><rect x="889" y="1039" width="11" height="32" fill="#142850" rx="0" transform="matrix(-.74051 .60633 -.66656 -.80463 2219.433 1471.352)"/><rect x="35" y="313" width="10" height="22" fill="#00A8CC" rx="0" transform="matrix(.92763 .75715 -.45571 .70606 185.725 75.67)"/><rect x="1457" y="1372" width="12" height="19" fill="#0C7B93" rx="0" transform="matrix(-.40801 .70288 -.98518 -.75374 3760.395 1759.254)"/><rect x="508" y="218" width="11" height="21" fill="#142850" rx="0" transform="matrix(-.88328 .29602 -.48911 -.96823 1095.065 379.066)"/><rect x="1694" y="1329" width="12" height="29" fill="#142850" rx="0" transform="matrix(-.13688 .99313 -.98524 -.1573 3399.384 -312.169)"/><rect x="1251" y="888" width="7" height="14" fill="#0C7B93" rx="0" transform="matrix(.94865 .12278 -.41825 1 308.105 -308.066)"/><rect x="91" y="1307" width="10" height="10" fill="#142850" rx="0" transform="matrix(1.0438 .19127 .1418 .98402 163.103 9.31)"/><rect x="1989" y="696" width="11" height="25" fill="#0C7B93" rx="0" transform="matrix(-.96094 .44166 -.29395 -.90554 4103.17 224.287)"/><rect x="114" y="101" width="9" height="10" fill="#27496D" rx="0" transform="matrix(.91 .57358 -.44384 .81915 74.5 -48.799)"/><rect x="1161" y="540" width="9" height="14" fill="#0C7B93" rx="0" transform="matrix(-.85075 .39127 -.55155 -.92177 2533.413 656.266)"/><rect x="1144" y="303" width="9" height="20" fill="#00A8CC" rx="0" transform="matrix(-.32557 .87632 -.94552 -.52654 1818.362 -284.52)"/><rect x="1302" y="1011" width="9" height="26" fill="#00A8CC" rx="0" transform="matrix(-.4673 .9363 -.87924 -.37829 2846.716 4.48)"/><rect x="603" y="996" width="13" height="15" fill="#142850" rx="0" transform="matrix(1.00612 -.07063 -.2291 1.01 98.708 -63.523)"/><rect x="1651" y="574" width="13" height="13" fill="#0C7B93" rx="0" transform="matrix(.30623 .9563 -.9462 .31072 1619.878 -1010.721)"/><rect x="237" y="377" width="10" height="12" fill="#00A8CC" rx="0" transform="matrix(.9405 .24196 -.36082 .97044 112.782 -51.458)"/><rect x="1168" y="1058" width="7" height="20" fill="#0C7B93" rx="0" transform="matrix(-.53598 .88811 -.82889 -.49229 2775.188 346.774)"/><rect x="511" y="1088" width="11" height="29" fill="#0C7B93" rx="0" transform="matrix(-.4596 .95762 -.90374 -.29277 1618.216 903.604)"/><rect x="755" y="1016" width="7" height="14" fill="#142850" rx="0" transform="matrix(-.10402 .96618 -.98869 -.43017 1826.41 991.389)"/><rect x="131" y="848" width="12" height="32" fill="#142850" rx="0" transform="matrix(.19278 1.01404 -.99626 -.05314 1033.466 795.15)"/><rect x="1199" y="153" width="9" height="9" fill="#00A8CC" rx="0" transform="matrix(-.2998 .83756 -.97613 -.60852 1751.614 -432.18)"/><rect x="1461" y="397" width="12" height="15" fill="#27496D" rx="0" transform="matrix(.76878 .73415 -.64522 .6846 618.797 -821.07)"/><rect x="1218" y="974" width="7" height="19" fill="#0C7B93" rx="0" transform="matrix(-.65957 .92252 -.79032 -.41073 2690.354 88.924)"/><rect x="1405" y="1252" width="8" height="23" fill="#27496D" rx="0" transform="matrix(.64274 .97106 -.8333 .29688 1850.137 -231.385)"/><rect x="1302" y="469" width="13" height="38" fill="#00A8CC" rx="0" transform="matrix(-.97623 -.1099 -.18966 -1.0457 2662.51 1567.274)"/><rect x="1885" y="905" width="9" height="25" fill="#142850" rx="0" transform="matrix(-.42544 .711 -.98102 -.711 3913.5 425)"/><rect x="1043" y="153" width="8" height="19" fill="#27496D" rx="0" transform="matrix(.99556 -.03495 .10543 1.00076 .736 -18.405)"/><rect x="1617" y="1337" width="11" height="13" fill="#142850" rx="0" transform="matrix(-.91893 .30006 -.32694 -.98146 3249.774 2549.823)"/><rect x="112" y="770" width="12" height="14" fill="#0C7B93" rx="0" transform="matrix(-.24153 .7895 -1.06397 -.66247 1174.265 1227.996)"/><rect x="319" y="793" width="8" height="23" fill="#00A8CC" rx="0" transform="matrix(.62863 .99127 -.8866 .19268 1093.068 374.699)"/><rect x="1660" y="1332" width="13" height="33" fill="#0C7B93" rx="0" transform="matrix(-.90171 .35859 -.43969 -.93415 3835.844 2068.812)"/><rect x="877" y="668" width="7" height="18" fill="#27496D" rx="0" transform="matrix(-.84525 .21525 -.66924 -1.01265 2271.869 1408.971)"/><rect x="1190" y="618" width="13" height="37" fill="#00A8CC" rx="0" transform="matrix(-.85988 .32636 -.56679 -.94783 2765.737 765.631)"/><rect x="117" y="350" width="13" height="38" fill="#00A8CC" rx="0" transform="matrix(-.46034 .9636 -.90577 -.27631 470.332 343.317)"/><rect x="1895" y="880" width="7" height="16" fill="#142850" rx="0" transform="matrix(.7627 .47206 -.68397 .88781 961.13 -996.118)"/><rect x="117" y="381" width="8" height="12" fill="#27496D" rx="0" transform="matrix(-.53194 .79864 -.85129 -.60182 548.672 523.268)"/><rect x="653" y="1100" width="10" height="15" fill="#00A8CC" rx="0" transform="matrix(-.96593 0 -.18643 -1.03528 1410.273 2430.379)"/><rect x="1716" y="206" width="7" height="17" fill="#142850" rx="0" transform="matrix(-.46763 .80017 -.88439 -.62516 2682.743 -1330.485)"/><rect x="324" y="638" width="11" height="24" fill="#142850" rx="0" transform="matrix(.64605 .69476 -.77034 .71945 536.83 -40.815)"/><rect x="1543" y="714" width="11" height="16" fill="#142850" rx="0" transform="matrix(-.48642 .77786 -.87742 -.6527 2952.59 261.775)"/><rect x="1434" y="779" width="7" height="17" fill="#27496D" rx="0" transform="matrix(1.04743 .41435 -.06085 .93064 167.867 -261.588)"/><rect x="1076" y="228" width="10" height="24" fill="#27496D" rx="0" transform="matrix(.89377 .60411 -.46925 .80169 263.715 -700.027)"/><rect x="280" y="30" width="12" height="26" fill="#142850" rx="0" transform="matrix(.1679 .94505 -1.14003 -.46093 331.17 -114.537)"/><rect x="978" y="1250" width="12" height="24" fill="#0C7B93" rx="0" transform="matrix(.95105 .10583 -.40033 1.00692 397.925 -268.72)"/><rect x="542" y="1304" width="11" height="30" fill="#00A8CC" rx="0" transform="matrix(-.94912 .10773 -.25235 -1.02497 1272.647 2748.458)"/><rect x="1214" y="1026" width="11" height="22" fill="#00A8CC" rx="0" transform="matrix(-.68514 .64367 -.73707 -.7671 2990.955 983.612)"/><rect x="584" y="280" width="8" height="21" fill="#27496D" rx="0" transform="matrix(.8473 .73044 -.55082 .70537 270.46 -240.228)"/><rect x="770" y="301" width="7" height="11" fill="#00A8CC" rx="0" transform="matrix(-.75178 .40858 -.6764 -.96256 1581.277 521.969)"/><rect x="1034" y="211" width="13" height="32" fill="#00A8CC" rx="0" transform="matrix(-.92131 .24494 -.3875 -.9824 2106.103 30.346)"/><rect x="21" y="400" width="12" height="12" fill="#142850" rx="0" transform="matrix(.12168 .98857 -.9901 .17431 439.794 306.176)"/><rect x="612" y="1071" width="8" height="8" fill="#00A8CC" rx="0" transform="matrix(-.14415 .93586 -1.0132 -.35924 1971.073 927.771)"/><rect x="1680" y="1383" width="12" height="12" fill="#00A8CC" rx="0" transform="matrix(.752 .54472 -.67782 .8388 1109.517 -665.063)"/><rect x="519" y="115" width="12" height="29" fill="#142850" rx="0" transform="matrix(-.94457 .1256 -.26887 -1.02293 1032.936 326.927)"/><rect x="1292" y="1311" width="7" height="7" fill="#27496D" rx="0" transform="matrix(.93067 .45406 -.3758 .89114 719.599 -467.754)"/><rect x="1514" y="1264" width="10" height="28" fill="#00A8CC" rx="0" transform="matrix(.31584 1.03887 -.97913 -.05445 2440.488 205.098)"/><rect x="1872" y="509" width="13" height="36" fill="#0C7B93" rx="0" transform="matrix(.46753 1.0249 -1.00021 -.05371 1802.822 -936.278)"/><rect x="974" y="1023" width="13" height="24" fill="#27496D" rx="0" transform="matrix(.24361 1.01108 -.97628 .05299 2054.99 -166.5)"/><rect x="660" y="1123" width="11" height="17" fill="#0C7B93" rx="0" transform="matrix(-.48439 .5739 -1.02432 -.85084 2589.392 1865.942)"/><rect x="42" y="344" width="7" height="9" fill="#00A8CC" rx="0" transform="matrix(.64958 .95728 -.8082 .34842 347.823 192.363)"/><rect x="715" y="159" width="11" height="19" fill="#142850" rx="0" transform="matrix(.84201 .91521 -.7 .42677 319.433 -461.563)"/><rect x="420" y="54" width="9" height="15" fill="#27496D" rx="0" transform="matrix(-.94101 .1573 -.41612 -.99313 866.358 100.422)"/><rect x="923" y="370" width="7" height="19" fill="#00A8CC" rx="0" transform="matrix(-.70655 .57498 -.73015 -.82115 1912.758 223.198)"/><rect x="141" y="751" width="8" height="14" fill="#00A8CC" rx="0" transform="matrix(-.8231 .27835 -.72214 -.9707 1064.642 1473.815)"/><rect x="1232" y="515" width="8" height="11" fill="#142850" rx="0" transform="matrix(.90294 .27716 -.45917 .96656 324.797 -455.066)"/><rect x="57" y="1051" width="9" height="11" fill="#00A8CC" rx="0" transform="matrix(-.0175 1 -1.0003 .01746 1063.975 977.632)"/><rect x="688" y="634" width="10" height="13" fill="#0C7B93" rx="0" transform="matrix(-.9576 .12187 -.40648 -.99255 1800.626 1191.77)"/><rect x="902" y="638" width="7" height="8" fill="#00A8CC" rx="0" transform="matrix(.78837 .58787 -.61594 .80914 576.13 -425.594)"/><rect x="146" y="624" width="8" height="22" fill="#0C7B93" rx="0" transform="matrix(.73147 .66913 -.6821 .74314 462.331 62.733)"/><rect x="1890" y="291" width="8" height="16" fill="#0C7B93" rx="0" transform="matrix(.06985 1.0032 -.99924 -.03503 2068.594 -1424.898)"/><rect x="1929" y="420" width="7" height="16" fill="#00A8CC" rx="0" transform="matrix(-.4586 .81928 -.89947 -.57366 3260.41 -875.992)"/><rect x="669" y="552" width="9" height="24" fill="#00A8CC" rx="0" transform="matrix(.96996 .40698 -.27853 .9141 239.074 -202.139)"/><rect x="160" y="1240" width="12" height="30" fill="#0C7B93" rx="0" transform="matrix(-.95618 .20794 -.31054 -.9783 824.506 2451.141)"/><rect x="391" y="1312" width="9" height="13" fill="#0C7B93" rx="0" transform="matrix(.60833 .99386 -.88793 .19319 1695.716 733.35)"/><rect x="905" y="979" width="12" height="27" fill="#00A8CC" rx="0" transform="matrix(.9883 .03516 -.13886 1.0069 163.846 -150.733)"/><rect x="220" y="324" width="8" height="23" fill="#0C7B93" rx="0" transform="matrix(.34218 1.02284 -1.0504 -.21741 600.486 247.809)"/><rect x="1088" y="832" width="9" height="22" fill="#27496D" rx="0" transform="matrix(-.58809 .47735 -.9407 -.93686 2826.68 1466.238)"/><rect x="1883" y="273" width="7" height="10" fill="#00A8CC" rx="0" transform="matrix(.8884 .74724 -.53835 .67282 452.786 -1120.429)"/><rect x="1801" y="387" width="12" height="30" fill="#0C7B93" rx="0" transform="matrix(.14017 1.01156 -1.00083 -.0885 1993.815 -1071.694)"/><rect x="708" y="1284" width="9" height="23" fill="#0C7B93" rx="0" transform="matrix(.97105 .35842 -.26033 .93372 472.314 -157.077)"/><rect x="742" y="929" width="9" height="24" fill="#0C7B93" rx="0" transform="matrix(-.65966 .56782 -.78314 -.84183 2088.606 1440.91)"/><rect x="1874" y="976" width="11" height="17" fill="#00A8CC" rx="0" transform="matrix(-.85468 .32492 -.44724 -1 3701.997 1969)"/><rect x="194" y="1323" width="10" height="15" fill="#27496D" rx="0" transform="matrix(-.93794 .37552 -.34147 -.92945 885.958 2478.486)"/><rect x="581" y="459" width="8" height="12" fill="#27496D" rx="0" transform="matrix(.87401 .42789 -.46275 .9176 328.017 -304.655)"/><rect x="1860" y="1218" width="10" height="21" fill="#27496D" rx="0" transform="matrix(.6306 .69848 -.77867 .7233 1627.513 -1158.77)"/><rect x="592" y="614" width="7" height="15" fill="#142850" rx="0" transform="matrix(-.08882 1.00122 -1.00033 .01748 1166.72 45.62)"/><rect x="651" y="426" width="13" height="33" fill="#0C7B93" rx="0" transform="matrix(-.86144 .37742 -.51743 -.93415 1471.131 688.437)"/><rect x="1337" y="1029" width="13" height="27" fill="#00A8CC" rx="0" transform="matrix(.29269 .9148 -.96282 .4073 1757.783 -540.728)"/><rect x="1278" y="342" width="13" height="33" fill="#0C7B93" rx="0" transform="matrix(.37549 .87582 -.93365 .48547 1061.815 -873.216)"/><rect x="1208" y="713" width="10" height="10" fill="#27496D" rx="0" transform="matrix(.49311 .94199 -.8821 .34286 1394.389 -755.622)"/><rect x="752" y="1208" width="10" height="15" fill="#00A8CC" rx="0" transform="matrix(.22552 .95853 -1.14843 -.44697 2490.474 1293.84)"/><rect x="693" y="800" width="12" height="26" fill="#27496D" rx="0" transform="matrix(.94668 .39946 -.27314 .94107 175.209 -82.735)"/><rect x="146" y="1261" width="8" height="10" fill="#0C7B93" rx="0" transform="matrix(-.9489 .12217 -.45741 -.99497 1213.45 2517.796)"/><rect x="953" y="696" width="7" height="10" fill="#27496D" rx="0" transform="matrix(-.0695 .99069 -.98947 -.28408 1683.784 191.025)"/><rect x="680" y="206" width="11" height="29" fill="#142850" rx="0" transform="matrix(.01179 1.01527 -.98475 .01772 834.363 -358.504)"/><rect x="401" y="255" width="7" height="19" fill="#0C7B93" rx="0" transform="matrix(.99127 .25945 -.15483 .96828 86.137 -124.845)"/><rect x="1920" y="281" width="13" height="36" fill="#142850" rx="0" transform="matrix(1.10375 .38782 .15338 .9599 -11.982 -218.941)"/><rect x="1703" y="469" width="13" height="20" fill="#00A8CC" rx="0" transform="matrix(.75711 .80017 -.65822 .62516 744.126 -886.906)"/><rect x="1192" y="1214" width="10" height="23" fill="#00A8CC" rx="0" transform="matrix(.8595 .61765 -.47845 .81964 623.11 -241.944)"/><rect x="517" y="114" width="8" height="15" fill="#27496D" rx="0" transform="matrix(.9802 .05273 -.26167 1.00613 37.079 -92.187)"/><rect x="484" y="358" width="8" height="23" fill="#00A8CC" rx="0" transform="matrix(-.94486 .19127 -.36721 -.98402 1168.394 605.63)"/><rect x="1087" y="647" width="11" height="21" fill="#00A8CC" rx="0" transform="matrix(.1581 1.00986 -1.00685 -.10614 1656.148 -183.351)"/><rect x="796" y="22" width="13" height="26" fill="#27496D" rx="0" transform="matrix(.94214 .61576 -.41814 .78813 66.695 -500.736)"/><rect x="18" y="1277" width="10" height="13" fill="#0C7B93" rx="0" transform="matrix(.2723 1.05146 -.95106 0 1192.336 1266.79)"/><rect x="1844" y="656" width="10" height="17" fill="#27496D" rx="0" transform="matrix(.01745 1.00076 -.99985 -.03495 2481.13 -1065.785)"/><rect x="1766" y="1307" width="7" height="15" fill="#142850" rx="0" transform="matrix(.20926 .96955 -1.11596 -.39172 3433.41 654.794)"/><rect x="1535" y="1150" width="8" height="15" fill="#142850" rx="0" transform="matrix(.93836 .80648 -.53284 .60773 1105.555 -570.834)"/><rect x="671" y="279" width="8" height="14" fill="#0C7B93" rx="0" transform="matrix(-.92888 .3439 -.3557 -.94487 1372.498 395.043)"/><rect x="732" y="848" width="8" height="16" fill="#27496D" rx="0" transform="matrix(-.97815 .22499 -.20791 -.97452 1633.889 1511.752)"/><rect x="1145" y="1011" width="13" height="16" fill="#142850" rx="0" transform="matrix(.90047 .59511 -.44096 .8191 835.786 -683.316)"/><rect x="1631" y="149" width="10" height="14" fill="#0C7B93" rx="0" transform="matrix(-.43907 .63279 -.99764 -.83974 2656.104 -216.67)"/><rect x="1724" y="909" width="10" height="20" fill="#27496D" rx="0" transform="matrix(-.80328 .25167 -.75167 -1.0094 4161.396 1907.28)"/><rect x="799" y="643" width="12" height="16" fill="#0C7B93" rx="0" transform="matrix(.94493 .17535 -.34375 .99449 249.324 -250.706)"/><rect x="1206" y="611" width="12" height="23" fill="#0C7B93" rx="0" transform="matrix(-.23289 .88295 -1.00874 -.46947 2288.999 -155.386)"/><rect x="795" y="1040" width="9" height="24" fill="#142850" rx="0" transform="matrix(-.53 .83867 -.84818 -.54464 2133.88 954.443)"/><rect x="201" y="355" width="9" height="15" fill="#27496D" rx="0" transform="matrix(-.43933 .58474 -1.05882 -.86692 817.803 619.42)"/><rect x="1740" y="605" width="10" height="29" fill="#27496D" rx="0" transform="matrix(.87111 .86073 -.5961 .55897 774.466 -825.89)"/><rect x="1074" y="45" width="10" height="27" fill="#0C7B93" rx="0" transform="matrix(.73425 .76884 -.6624 .66834 306.74 -600.435)"/><rect x="1387" y="718" width="8" height="20" fill="#0C7B93" rx="0" transform="matrix(.49337 .88322 -.85875 .48957 1216.5 -661.47)"/><rect x="1905" y="510" width="8" height="18" fill="#00A8CC" rx="0" transform="matrix(.79575 .82916 -.6693 .55928 885.27 -1320.817)"/><rect x="1519" y="458" width="11" height="25" fill="#0C7B93" rx="0" transform="matrix(1.00669 .0349 .17843 .99954 8.334 -79.608)"/><rect x="976" y="649" width="9" height="13" fill="#27496D" rx="0" transform="matrix(.14054 1 -1.0484 -.34433 1669.494 238.32)"/><rect x="1052" y="699" width="8" height="17" fill="#27496D" rx="0" transform="matrix(.94998 .32601 -.3084 .94682 316.615 -361.987)"/><rect x="1481" y="605" width="13" height="34" fill="#142850" rx="0" transform="matrix(-.65923 .51315 -.80691 -.8888 3105.691 754.94)"/><rect x="1042" y="1062" width="10" height="16" fill="#00A8CC" rx="0" transform="matrix(-.95986 -.09164 -.05905 -1.04746 1891.8 2626.922)"/><rect x="1494" y="1189" width="12" height="27" fill="#00A8CC" rx="0" transform="rotate(106 1500 1202.5)"/><rect x="1633" y="182" width="9" height="16" fill="#00A8CC" rx="0" transform="matrix(.90354 .53 -.44083 .84818 260.84 -810.446)"/><rect x="1287" y="1049" width="7" height="15" fill="#0C7B93" rx="0" transform="matrix(-.17287 .97324 -.97792 -.27907 2480.687 299.765)"/><rect x="659" y="554" width="9" height="19" fill="#142850" rx="0" transform="matrix(.64506 .84187 -.76892 .54672 690.493 -245.111)"/><rect x="183" y="1222" width="11" height="16" fill="#00A8CC" rx="0" transform="matrix(.52953 .9512 -.87925 .30906 1476.01 667.26)"/><rect x="527" y="802" width="13" height="25" fill="#142850" rx="0" transform="matrix(-.14002 .97089 -.99507 -.24207 1476.948 512.327)"/><rect x="659" y="177" width="12" height="19" fill="#0C7B93" rx="0" transform="matrix(1.12297 .48603 .05452 .9141 19.557 -129.004)"/><rect x="660" y="492" width="8" height="15" fill="#0C7B93" rx="0" transform="matrix(-.93358 .37466 -.35837 -.92733 1462.902 702.332)"/><rect x="114" y="1047" width="12" height="23" fill="#142850" rx="0" transform="matrix(.37356 .87039 -.92445 .52298 1071.812 379.316)"/><rect x="1871" y="1201" width="8" height="23" fill="#142850" rx="0" transform="matrix(-.99137 .13936 -.12147 -.99163 3789.445 2251.805)"/><rect x="1779" y="1194" width="13" height="24" fill="#27496D" rx="0" transform="matrix(.69234 .76412 -.70686 .66424 1598.038 -1242.196)"/><rect x="1454" y="241" width="7" height="19" fill="#142850" rx="0" transform="matrix(.71804 .54873 -.71671 .84497 584.239 -939.896)"/><rect x="50" y="754" width="7" height="16" fill="#142850" rx="0" transform="matrix(-.89641 .3473 -.41652 -.95419 351.354 1479.945)"/><rect x="1283" y="1343" width="7" height="15" fill="#00A8CC" rx="0" transform="matrix(-.99756 .17407 -.0873 -.98721 2665.753 2369.826)"/><rect x="948" y="491" width="9" height="15" fill="#27496D" rx="0" transform="matrix(.43036 1.0296 -.92601 .10822 1056.9 -280.923)"/><rect x="1015" y="659" width="10" height="11" fill="#00A8CC" rx="0" transform="matrix(.58882 .85129 -.80675 .53194 1046.604 -646.528)"/><rect x="861" y="449" width="13" height="17" fill="#142850" rx="0" transform="matrix(-.82981 .28289 -.64106 -.98655 1984.833 863.718)"/><rect x="616" y="143" width="9" height="12" fill="#0C7B93" rx="0" transform="matrix(-.90825 .15993 -.5183 -1.00975 1305.784 332.109)"/><rect x="902" y="1177" width="9" height="17" fill="#00A8CC" rx="0" transform="matrix(-.3779 .87682 -.9223 -.50623 2641.223 847.225)"/><rect x="97" y="747" width="7" height="11" fill="#00A8CC" rx="0" transform="matrix(-.68887 .87939 -.73944 -.50771 687.65 1028.455)"/><rect x="1312" y="1003" width="7" height="11" fill="#0C7B93" rx="0" transform="matrix(-.82505 .66923 -.57794 -.74326 2880.12 854.738)"/><rect x="1735" y="1204" width="8" height="9" fill="#00A8CC" rx="0" transform="matrix(-.92848 .07294 -.43131 -1.04314 3996.55 2873.957)"/><rect x="1800" y="103" width="9" height="25" fill="#0C7B93" rx="0" transform="matrix(-.99677 -.01746 .15896 -1.00046 3553.332 325.58)"/><rect x="843" y="394" width="10" height="11" fill="#00A8CC" rx="0" transform="matrix(-.2072 .97767 -.9595 -.2989 1335.838 -129.904)"/><rect x="1691" y="25" width="10" height="16" fill="#00A8CC" rx="0" transform="matrix(-.2168 .86616 -1.02936 -.50008 2098.825 -1449.104)"/><rect x="1714" y="1087" width="10" height="25" fill="#27496D" rx="0" transform="matrix(-.96623 .37483 -.27635 -.92775 3520.827 1535.248)"/><rect x="171" y="525" width="9" height="10" fill="#27496D" rx="0" transform="matrix(-.66351 .67416 -.74643 -.74873 804.941 786.962)"/><rect x="830" y="1328" width="9" height="21" fill="#27496D" rx="0" transform="matrix(1.03906 .22509 .05797 .97496 315.252 -183.467)"/><rect x="803" y="577" width="11" height="26" fill="#27496D" rx="0" transform="matrix(.71112 .66618 -.68305 .76635 691.5 -543.315)"/><rect x="220" y="874" width="11" height="19" fill="#27496D" rx="0" transform="matrix(.84326 .6687 -.4905 .79692 369.041 93.296)"/><rect x="751" y="826" width="10" height="19" fill="#00A8CC" rx="0" transform="matrix(.8101 .89162 -.69081 .47409 955.55 -128.418)"/><rect x="429" y="816" width="9" height="24" fill="#142850" rx="0" transform="matrix(-.99626 -.1289 -.35544 -1.04974 1297.032 1902.323)"/><rect x="1108" y="1144" width="13" height="24" fill="#0C7B93" rx="0" transform="matrix(-.8581 .35974 -.54436 -.93715 3003.66 1740.909)"/><rect x="1415" y="1008" width="7" height="8" fill="#142850" rx="0" transform="matrix(.2252 .98496 -.97556 .17367 2122.521 -536.161)"/><rect x="1134" y="771" width="9" height="19" fill="#142850" rx="0" transform="matrix(.8944 .6825 -.43632 .78512 441.46 -282.853)"/><rect x="1058" y="766" width="10" height="16" fill="#27496D" rx="0" transform="matrix(-1.05116 -.17977 -.39886 -1.01955 2812.817 2039.06)"/><rect x="1404" y="771" width="13" height="20" fill="#142850" rx="0" transform="matrix(-.57044 .5739 -.89674 -.85084 3130.574 961.66)"/><rect x="1439" y="105" width="10" height="17" fill="#142850" rx="0" transform="matrix(.75907 .88119 -.71407 .48845 485.475 -1037.074)"/><rect x="1673" y="284" width="12" height="30" fill="#00A8CC" rx="0" transform="matrix(.93277 .42532 -.25613 .95529 75.295 -187.423)"/><rect x="745" y="1112" width="8" height="20" fill="#27496D" rx="0" transform="matrix(.12522 .94522 -1.0099 .36284 1700.528 -111.699)"/><rect x="349" y="1287" width="10" height="25" fill="#142850" rx="0" transform="matrix(.64453 1.01793 -.8803 .16122 1615.804 817.907)"/><rect x="1465" y="1105" width="10" height="27" fill="#0C7B93" rx="0" transform="matrix(-.49933 .87582 -.865 -.48547 3207.895 297.009)"/><rect x="1325" y="1117" width="10" height="19" fill="#0C7B93" rx="0" transform="matrix(.87608 .57577 -.48565 .82228 733.595 -449.21)"/><rect x="1084" y="746" width="10" height="23" fill="#0C7B93" rx="0" transform="matrix(.0008 1.00536 -.99466 .01755 1897.84 -465.083)"/><rect x="424" y="920" width="7" height="16" fill="#142850" rx="0" transform="matrix(.69205 .60264 -.74098 .79973 708.087 -94.184)"/><rect x="107" y="353" width="9" height="23" fill="#0C7B93" rx="0" transform="matrix(.247 .9749 -1.12554 -.39388 624.424 435.598)"/><rect x="471" y="851" width="8" height="17" fill="#142850" rx="0" transform="matrix(.83185 .47012 -.56266 .88416 423.4 -98.846)"/><rect x="339" y="863" width="7" height="20" fill="#00A8CC" rx="0" transform="matrix(.15275 .95157 -1.1126 -.38446 1570.836 961.793)"/><rect x="1352" y="1327" width="9" height="26" fill="#142850" rx="0" transform="matrix(-.94117 .14132 -.37933 -1.00554 3251.935 2734.917)"/><rect x="351" y="1288" width="7" height="7" fill="#27496D" rx="0" transform="matrix(-.54354 .80059 -.8395 -.60328 1809.42 1762.045)"/><rect x="1871" y="1100" width="9" height="24" fill="#142850" rx="0" transform="matrix(-.26894 .85084 -.9939 -.5739 3647.5 587.413)"/><rect x="1596" y="858" width="8" height="16" fill="#27496D" rx="0" transform="matrix(-.91977 .32877 -.37046 -.95481 3297.008 1391.703)"/><rect x="1937" y="877" width="10" height="25" fill="#0C7B93" rx="0" transform="matrix(.3385 1.03255 -1.01004 -.12678 2438.099 -446.072)"/><rect x="320" y="846" width="11" height="26" fill="#27496D" rx="0" transform="matrix(-.01223 .92029 -1.08091 -.42914 1503.532 985.47)"/><rect x="1201" y="461" width="12" height="14" fill="#27496D" rx="0" transform="matrix(.83986 .63716 -.53231 .78683 516.59 -860.466)"/><rect x="721" y="494" width="11" height="27" fill="#142850" rx="0" transform="matrix(-.05223 .9926 -.9954 -.22916 1258.28 43.888)"/><rect x="1845" y="1006" width="7" height="8" fill="#00A8CC" rx="0" transform="matrix(1.00068 .42365 -.21447 .90852 395.801 -561.464)"/><rect x="1876" y="1055" width="9" height="17" fill="#0C7B93" rx="0" transform="matrix(.9265 .71242 -.47718 .71242 897.322 -802.96)"/><rect x="486" y="218" width="9" height="18" fill="#00A8CC" rx="0" transform="matrix(-.36453 .67216 -1.05331 -.80105 1009.412 229.105)"/><rect x="1152" y="1334" width="13" height="18" fill="#0C7B93" rx="0" transform="matrix(.989 .31072 -.17452 .9563 298.273 -179.51)"/><rect x="568" y="292" width="10" height="21" fill="#27496D" rx="0" transform="matrix(-.91417 .14634 -.32893 -1.04123 1144.962 719.8)"/><rect x="35" y="939" width="8" height="20" fill="#27496D" rx="0" transform="matrix(-.80417 .42914 -.60571 -.92029 678.565 1812.495)"/><rect x="1849" y="620" width="8" height="8" fill="#27496D" rx="0" transform="matrix(.99817 .20906 -.08736 .98354 72.194 -182.35)"/><rect x="539" y="528" width="8" height="21" fill="#142850" rx="0" transform="matrix(-.97 .03555 -.34996 -1.0181 1337.244 1172.988)"/><rect x="387" y="1153" width="10" height="28" fill="#00A8CC" rx="0" transform="matrix(1.0541 .43753 -.02504 .93828 209.482 5.554)"/><rect x="1442" y="1083" width="8" height="9" fill="#0C7B93" rx="0" transform="matrix(.46195 1.0536 -.90871 .09218 1849.33 -38.346)"/><rect x="1937" y="1007" width="7" height="13" fill="#142850" rx="0" transform="matrix(-.95284 .12508 -.23496 -1.01865 3874 2251.198)"/><rect x="1300" y="632" width="13" height="16" fill="#0C7B93" rx="0" transform="matrix(-1.00478 -.07028 -.14027 -1.00506 2779.041 1535.475)"/><rect x="864" y="743" width="10" height="19" fill="#142850" rx="0" transform="matrix(.5 .82228 -.86603 .57577 1086.184 -471.355)"/><rect x="1208" y="1041" width="10" height="27" fill="#0C7B93" rx="0" transform="matrix(.17657 1.01626 -1.01833 -.19754 2217.64 355.11)"/><rect x="1185" y="709" width="10" height="14" fill="#0C7B93" rx="0" transform="matrix(.94411 .9141 -.59199 .48603 787.111 -400.912)"/><rect x="1442" y="384" width="10" height="14" fill="#27496D" rx="0" transform="matrix(-.99452 -.05299 -.10453 -1.01108 2926.944 1092.188)"/><rect x="787" y="646" width="9" height="16" fill="#27496D" rx="0" transform="matrix(.8446 .40898 -.54814 .91858 451.575 -353.645)"/><rect x="1102" y="734" width="11" height="30" fill="#00A8CC" rx="0" transform="matrix(1.08374 .65468 -.18916 .80846 314.869 -264.03)"/><rect x="1836" y="1055" width="11" height="21" fill="#142850" rx="0" transform="matrix(-.98294 .12254 -.15516 -.99801 3728.867 2096.774)"/><rect x="60" y="1036" width="8" height="13" fill="#00A8CC" rx="0" transform="matrix(-.96628 .07002 -.46259 -1.00137 928.523 2087.55)"/><rect x="146" y="1077" width="9" height="21" fill="#142850" rx="0" transform="matrix(.45914 1 -.9024 .21256 1121.435 737.835)"/><rect x="622" y="641" width="13" height="38" fill="#00A8CC" rx="0" transform="matrix(1.00323 .19375 -.00005 .99677 11.46 -8.82)"/><rect x="968" y="213" width="12" height="24" fill="#142850" rx="0" transform="matrix(.88367 .53121 -.4683 .85012 240.72 -551.787)"/><rect x="127" y="1329" width="10" height="17" fill="#00A8CC" rx="0" transform="matrix(.07348 .99589 -1.01185 -.10467 1782.844 1339.124)"/><rect x="587" y="93" width="7" height="20" fill="#27496D" rx="0" transform="matrix(-.98416 .44166 -.24634 -.90554 1194.351 -137.035)"/><rect x="901" y="721" width="13" height="27" fill="#142850" rx="0" transform="matrix(.96126 .44513 -.27564 .91266 237.61 -179.79)"/><rect x="1725" y="774" width="8" height="15" fill="#00A8CC" rx="0" transform="matrix(-.97849 .05246 -.3901 -1.00107 3967.472 1594.028)"/><rect x="1545" y="1379" width="8" height="19" fill="#142850" rx="0" transform="matrix(.38593 1.03528 -.96593 0 2513.823 199.91)"/><rect x="580" y="990" width="12" height="35" fill="#27496D" rx="0" transform="matrix(.93855 .4258 -.33583 .91311 573.214 -233.928)"/><rect x="1388" y="861" width="9" height="13" fill="#27496D" rx="0" transform="matrix(.97785 .07002 -.29717 1.00137 183.844 -220.527)"/><rect x="1318" y="1154" width="11" height="23" fill="#00A8CC" rx="0" transform="matrix(-1.04202 -.1985 -.32292 -1.02119 3435.666 2997.913)"/><rect x="260" y="424" width="7" height="13" fill="#27496D" rx="0" transform="matrix(-.98983 -.0719 -.24554 -1.0281 664.724 957.74)"/><rect x="1470" y="1366" width="13" height="21" fill="#27496D" rx="0" transform="matrix(.30246 1.0032 -1.00736 -.03503 2791.956 72.663)"/><rect x="244" y="1014" width="10" height="25" fill="#0C7B93" rx="0" transform="matrix(-.22988 .9514 -.9674 -.34628 1563.765 1105.622)"/><rect x="193" y="508" width="12" height="12" fill="#00A8CC" rx="0" transform="matrix(.34313 1.02023 -1.06572 -.25437 833.55 506.38)"/><rect x="1242" y="672" width="9" height="16" fill="#142850" rx="0" transform="matrix(-.63384 .71018 -.75174 -.73541 2448.443 559.795)"/><rect x="961" y="556" width="9" height="16" fill="#00A8CC" rx="0" transform="matrix(1.0228 .52468 -.20372 .87321 211.943 -247.393)"/><rect x="1199" y="745" width="11" height="19" fill="#27496D" rx="0" transform="matrix(-.93146 .2255 -.39997 -.97675 2795.341 1135.615)"/><rect x="1572" y="970" width="12" height="29" fill="#0C7B93" rx="0" transform="matrix(-.01913 .9761 -1.019 -.27989 2721.88 -1.976)"/><rect x="986" y="951" width="11" height="15" fill="#142850" rx="0" transform="matrix(.95106 .29242 -.30902 .95645 344.72 -265.495)"/><rect x="1795" y="1145" width="13" height="21" fill="#00A8CC" rx="0" transform="matrix(.69466 .95853 -.71934 .44697 1381.27 -467.459)"/><rect x="498" y="559" width="8" height="12" fill="#27496D" rx="0" transform="matrix(-.75775 .52146 -.65659 -.86785 1411.11 714.055)"/><rect x="1051" y="86" width="11" height="11" fill="#27496D" rx="0" transform="matrix(.0696 .9894 -.99464 .22842 1072.316 -1160.992)"/><rect x="199" y="203" width="12" height="23" fill="#27496D" rx="0" transform="matrix(.35978 .97974 -.93762 .22619 340.607 -13.318)"/><rect x="1480" y="1100" width="13" height="38" fill="#142850" rx="0" transform="matrix(-.65967 .682 -.75887 -.73135 3433.887 923.594)"/><rect x="127" y="603" width="8" height="14" fill="#00A8CC" rx="0" transform="matrix(.1376 1.01527 -.98256 .01772 679.154 489.288)"/><rect x="1152" y="191" width="7" height="10" fill="#27496D" rx="0" transform="matrix(-.96906 .07083 -.2596 -1.01295 2333.108 516.438)"/><rect x="1070" y="479" width="11" height="25" fill="#142850" rx="0" transform="matrix(.42423 .94682 -.9101 .32601 1095.27 -630.673)"/><rect x="1023" y="531" width="12" height="25" fill="#00A8CC" rx="0" transform="matrix(-.91775 .24565 -.38989 -.98526 2302.905 644.773)"/><rect x="214" y="843" width="8" height="8" fill="#0C7B93" rx="0" transform="matrix(-.85277 .27064 -.51229 -1.01006 821.865 1710.17)"/><rect x="1744" y="596" width="10" height="11" fill="#00A8CC" rx="0" transform="matrix(.79832 .65967 -.59755 .75887 785.815 -1192.553)"/><rect x="1122" y="583" width="13" height="29" fill="#27496D" rx="0" transform="matrix(1.03977 .13926 .21743 .99087 32.152 -112.29)"/><rect x="1965" y="516" width="11" height="26" fill="#27496D" rx="0" transform="matrix(.8385 .39367 -.56485 .92742 596.974 -979.269)"/><rect x="1945" y="925" width="11" height="13" fill="#00A8CC" rx="0" transform="matrix(.29237 1.0238 -.9563 .0716 2271.027 -681.809)"/><rect x="113" y="941" width="11" height="31" fill="#00A8CC" rx="0" transform="matrix(1.00067 .25945 -.11975 .96828 316.014 -8.695)"/><rect x="163" y="146" width="10" height="25" fill="#142850" rx="0" transform="matrix(.46 1 -.8681 .28675 213.863 -6.776)"/><rect x="705" y="551" width="8" height="22" fill="#0C7B93" rx="0" transform="matrix(-.37508 .90645 -.9283 -.42268 1516.7 169.253)"/><rect x="1551" y="775" width="8" height="12" fill="#00A8CC" rx="0" transform="matrix(.3111 .88552 -.95683 .49085 1799.859 -1225.63)"/><rect x="161" y="218" width="7" height="18" fill="#27496D" rx="0" transform="matrix(-.35243 .91311 -.93081 -.4258 473.967 153.25)"/><rect x="788" y="98" width="7" height="16" fill="#27496D" rx="0" transform="matrix(.38065 1.03051 -1.05827 -.23791 703.817 -411.898)"/><rect x="1682" y="639" width="13" height="24" fill="#27496D" rx="0" transform="matrix(.9977 .82308 -.46313 .62024 592.634 -721.564)"/><rect x="1577" y="1024" width="12" height="32" fill="#27496D" rx="0" transform="matrix(.54622 .84183 -.81946 .56782 1337.974 -604.018)"/><rect x="306" y="462" width="13" height="31" fill="#00A8CC" rx="0" transform="matrix(.69123 .90987 -.71591 .50435 428.44 41.949)"/><rect x="35" y="1046" width="7" height="10" fill="#00A8CC" rx="0" transform="matrix(-.20454 .97125 -.9748 -.26024 1236.71 1283.078)"/><rect x="635" y="379" width="13" height="15" fill="#27496D" rx="0" transform="matrix(.95554 .22664 -.27337 .98169 155.698 -217.078)"/><rect x="1846" y="451" width="7" height="8" fill="#27496D" rx="0" transform="matrix(.96126 .44513 -.27564 .91266 197.061 -457.418)"/><rect x="1001" y="155" width="13" height="27" fill="#27496D" rx="0" transform="matrix(-.86158 .35886 -.5421 -.93486 1995.736 -88.328)"/><rect x="698" y="961" width="9" height="20" fill="#00A8CC" rx="0" transform="matrix(-.91509 .3102 -.4074 -.95469 1758.953 1741.55)"/><rect x="177" y="813" width="7" height="17" fill="#27496D" rx="0" transform="matrix(.48316 .87944 -.86927 .48748 891.742 243.325)"/><rect x="984" y="1130" width="7" height="16" fill="#27496D" rx="0" transform="matrix(-.08121 .85216 -1.11662 -.5967 2745.92 1258.684)"/><rect x="1815" y="1010" width="7" height="17" fill="#142850" rx="0" transform="matrix(-.45965 .95106 -.90211 -.30902 3411.86 -396.262)"/><rect x="1642" y="30" width="9" height="18" fill="#00A8CC" rx="0" transform="matrix(-.94311 .09067 -.24944 -1.03634 3155.337 402.259)"/><rect x="1807" y="1241" width="12" height="21" fill="#142850" rx="0" transform="matrix(.03736 .98829 -1.01776 -.15653 3293.322 -407.685)"/><rect x="1688" y="1131" width="9" height="11" fill="#00A8CC" rx="0" transform="matrix(-.95584 .56616 -.34918 -.83937 3631.128 864.149)"/><rect x="312" y="81" width="11" height="15" fill="#00A8CC" rx="0" transform="matrix(-.17418 1.00244 -.98843 -.05254 458.158 -252.904)"/><rect x="1617" y="968" width="9" height="19" fill="#142850" rx="0" transform="matrix(.0875 1.01626 -1.00101 -.19754 2482.762 -42.783)"/><rect x="1260" y="602" width="13" height="17" fill="#0C7B93" rx="0" transform="matrix(-.98886 .1397 -.12185 -.99405 2628.221 929.628)"/><rect x="1793" y="901" width="7" height="8" fill="#27496D" rx="0" transform="matrix(.3953 .99708 -.93322 .17581 2014.108 -760.833)"/><rect x="674" y="745" width="9" height="21" fill="#142850" rx="0" transform="matrix(1.03825 .69273 -.29046 .76936 392.717 -113.969)"/><rect x="1369" y="63" width="10" height="22" fill="#27496D" rx="0" transform="matrix(.19224 .99756 -.989 .06976 1192.132 -1301.815)"/><rect x="269" y="26" width="10" height="17" fill="#00A8CC" rx="0" transform="matrix(.93 .97354 -.63242 .41325 75.525 -152.163)"/><rect x="1967" y="1026" width="8" height="20" fill="#27496D" rx="0" transform="matrix(.60566 .67747 -.80342 .7524 1584.306 -1390.967)"/><rect x="1496" y="72" width="10" height="13" fill="#27496D" rx="0" transform="matrix(-.9951 -.01752 .0713 -1.00367 2959.563 314.904)"/><rect x="1064" y="220" width="11" height="25" fill="#27496D" rx="0" transform="matrix(.84033 .61801 -.54252 .79102 321.404 -705.947)"/><rect x="1308" y="247" width="7" height="12" fill="#27496D" rx="0" transform="matrix(-.96317 .07044 -.42203 -1.00737 2774.433 599.799)"/><rect x="576" y="1002" width="10" height="14" fill="#00A8CC" rx="0" transform="matrix(-.62842 .50976 -.82801 -.91963 1907.467 1829.515)"/><rect x="271" y="561" width="7" height="18" fill="#142850" rx="0" transform="matrix(.47097 1.00492 -.93728 .12339 798.714 267.295)"/><rect x="271" y="741" width="7" height="14" fill="#142850" rx="0" transform="matrix(.40709 .99467 -.96257 .10454 1098.615 401.554)"/><rect x="1061" y="687" width="10" height="27" fill="#00A8CC" rx="0" transform="matrix(.11847 1.02234 -.97815 0 1543.796 -162.73)"/><rect x="1199" y="77" width="13" height="32" fill="#00A8CC" rx="0" transform="matrix(.7731 .84805 -.6961 .52992 364.94 -978.604)"/><rect x="1640" y="668" width="9" height="18" fill="#0C7B93" rx="0" transform="matrix(.12204 .99756 -.9939 .06976 2152.167 -1010.72)"/><rect x="1583" y="354" width="7" height="18" fill="#142850" rx="0" transform="matrix(.43633 .94893 -.895 .34538 1198.681 -1044.879)"/><rect x="1412" y="1268" width="7" height="14" fill="#27496D" rx="0" transform="matrix(-.85127 .6019 -.5317 -.79876 3161.802 1466.124)"/><rect x="1034" y="847" width="9" height="15" fill="#00A8CC" rx="0" transform="matrix(-.71256 .48182 -.73534 -.90617 2502.571 1368.21)"/><rect x="1936" y="1147" width="12" height="34" fill="#0C7B93" rx="0" transform="matrix(-.90858 .20947 -.49934 -.9855 4534.986 2142.765)"/><rect x="1130" y="18" width="10" height="19" fill="#142850" rx="0" transform="matrix(-.9742 .05285 -.33254 -1.00844 2276.144 154.761)"/><rect x="115" y="654" width="8" height="22" fill="#0C7B93" rx="0" transform="matrix(.01962 1.01108 -.98802 .05299 853.034 490.597)"/><rect x="666" y="1326" width="13" height="30" fill="#00A8CC" rx="0" transform="matrix(.90435 .8121 -.57432 .59003 1262.463 62.463)"/><rect x="502" y="424" width="8" height="23" fill="#0C7B93" rx="0" transform="matrix(.23355 .98703 -1.05853 -.19186 1007.597 72.798)"/><rect x="1139" y="550" width="10" height="20" fill="#0C7B93" rx="0" transform="matrix(-.98152 .0351 -.38972 -1.0049 2654.704 1202.836)"/><rect x="595" y="862" width="11" height="32" fill="#142850" rx="0" transform="matrix(.74372 .86814 -.7225 .50122 983.8 -41.4)"/><rect x="1787" y="784" width="13" height="15" fill="#27496D" rx="0" transform="matrix(-.36607 .76635 -.98666 -.66618 3446.319 260.571)"/><rect x="97" y="447" width="12" height="26" fill="#0C7B93" rx="0" transform="matrix(.57386 1.03046 -.96043 .01799 634.176 371.27)"/><rect x="1111" y="692" width="10" height="16" fill="#0C7B93" rx="0" transform="matrix(.19424 1.00261 -1.0247 -.1409 1771.11 -143.522)"/><rect x="428" y="1311" width="8" height="22" fill="#142850" rx="0" transform="matrix(-.94682 .27564 -.32601 -.96126 1341.3 2473.713)"/><rect x="528" y="820" width="11" height="17" fill="#0C7B93" rx="0" transform="matrix(-.8449 .78143 -.59553 -.63279 1341.447 879.8)"/><rect x="1947" y="856" width="11" height="32" fill="#142850" rx="0" transform="matrix(-.60182 .59141 -.79864 -.8768 3823.954 1154.14)"/><rect x="724" y="51" width="12" height="34" fill="#0C7B93" rx="0" transform="matrix(-.57474 .74724 -.82076 -.67282 1207.9 -355.006)"/><rect x="1125" y="581" width="7" height="8" fill="#27496D" rx="0" transform="matrix(.53274 .86113 -.82837 .5381 887.728 -502.586)"/><rect x="1514" y="462" width="13" height="18" fill="#142850" rx="0" transform="matrix(.16948 .95295 -1.1284 -.44437 2089.332 -274.62)"/><rect x="422" y="275" width="11" height="22" fill="#00A8CC" rx="0" transform="matrix(1.03655 .72265 -.3104 .74833 159.998 -114.372)"/><rect x="1649" y="932" width="8" height="14" fill="#142850" rx="0" transform="matrix(-.009 .9951 -1.0035 -.1576 2807.377 -760.878)"/><rect x="681" y="1002" width="10" height="12" fill="#0C7B93" rx="0" transform="matrix(-.83698 .63405 -.54359 -.78298 1824.228 1278.06)"/><rect x="1415" y="104" width="10" height="23" fill="#0C7B93" rx="0" transform="matrix(.42547 .7524 -.94597 .67747 942.422 -1256.074)"/><rect x="522" y="723" width="13" height="19" fill="#0C7B93" rx="0" transform="matrix(-.91302 .12814 -.36792 -1.04362 1233.15 1600.953)"/><rect x="944" y="271" width="10" height="25" fill="#142850" rx="0" transform="matrix(.76864 .73044 -.62677 .70537 430.56 -776.993)"/><rect x="826" y="190" width="11" height="20" fill="#27496D" rx="0" transform="matrix(-.29415 .67983 -1.12041 -.81018 1458.179 83.07)"/><rect x="1219" y="360" width="9" height="16" fill="#27496D" rx="0" transform="matrix(-.33851 .91091 -.92532 -.46413 1923.24 -315.637)"/><rect x="1373" y="1348" width="7" height="16" fill="#142850" rx="0" transform="matrix(.68411 .7885 -.73376 .61604 1503.383 -516.635)"/><rect x="581" y="1052" width="7" height="16" fill="#0C7B93" rx="0" transform="matrix(-.8066 .42108 -.56319 -.94577 1567.855 1973.01)"/><rect x="951" y="1311" width="8" height="19" fill="#27496D" rx="0" transform="matrix(.4535 1.02068 -1.0274 -.10728 2379.279 707.888)"/><rect x="1085" y="934" width="12" height="13" fill="#27496D" rx="0" transform="matrix(-.38548 .75636 -.94987 -.7304 2495.466 1156.748)"/><rect x="1183" y="853" width="8" height="18" fill="#00A8CC" rx="0" transform="matrix(-.9663 .12415 -.18487 -1.01112 2359.183 1816.951)"/><rect x="1731" y="797" width="13" height="33" fill="#142850" rx="0" transform="matrix(.25234 .9657 -.95837 .29525 1892.194 -860.4)"/><rect x="239" y="895" width="7" height="19" fill="#00A8CC" rx="0" transform="matrix(.0321 .9712 -1.04197 -.37281 1296.776 1075.726)"/><rect x="1455" y="23" width="12" height="14" fill="#142850" rx="0" transform="matrix(-1.0003 .05234 -.01747 -.99878 2922.89 -42.013)"/><rect x="521" y="1147" width="8" height="10" fill="#142850" rx="0" transform="matrix(.38045 1.02284 -1.05854 -.21741 1921.053 1025.975)"/><rect x="1417" y="768" width="12" height="27" fill="#27496D" rx="0" transform="matrix(-.41618 1 -.94151 -.14054 2669.286 -731.657)"/><rect x="260" y="888" width="9" height="13" fill="#00A8CC" rx="0" transform="matrix(-.46841 .75655 -.9146 -.65766 1367.49 1301.165)"/><rect x="1488" y="623" width="12" height="22" fill="#142850" rx="0" transform="matrix(1.1314 .68982 -.14812 .79355 239.833 -414.273)"/><rect x="1892" y="1291" width="8" height="20" fill="#27496D" rx="0" transform="matrix(-.27806 .98616 -.965 -.17389 3456.88 -243.166)"/><rect x="1883" y="182" width="10" height="24" fill="#0C7B93" rx="0" transform="matrix(.6418 .7671 -.76509 .64367 809.362 -1280.203)"/><rect x="1354" y="1328" width="11" height="25" fill="#0C7B93" rx="0" transform="matrix(.92972 .71945 -.49213 .69476 1208.636 -592.653)"/><rect x="1300" y="224" width="9" height="25" fill="#0C7B93" rx="0" transform="matrix(.3396 .92402 -.93807 .39222 1034.056 -947.517)"/><rect x="835" y="1137" width="12" height="24" fill="#0C7B93" rx="0" transform="matrix(-.79122 .39946 -.63938 -.94107 2333.912 2073.103)"/><rect x="1154" y="1257" width="9" height="18" fill="#142850" rx="0" transform="matrix(-.79197 .62028 -.59848 -.79393 2951.792 1410.268)"/><rect x="717" y="654" width="9" height="26" fill="#27496D" rx="0" transform="matrix(-.91442 .2255 -.4738 -.97675 1897.606 1105.341)"/><rect x="337" y="1027" width="7" height="12" fill="#0C7B93" rx="0" transform="matrix(.87897 .39097 -.48703 .92107 472.906 -63.477)"/><rect x="1057" y="71" width="11" height="30" fill="#142850" rx="0" transform="matrix(.01745 1.00552 -.99985 -.30742 1129.944 -610.698)"/><rect x="820" y="245" width="7" height="18" fill="#00A8CC" rx="0" transform="matrix(1.1446 .65114 -.07077 .83342 63.25 -210.345)"/><rect x="765" y="1373" width="12" height="13" fill="#27496D" rx="0" transform="matrix(-1.03991 -.14132 -.32323 -1.00554 2453.224 3011.555)"/><rect x="162" y="612" width="13" height="14" fill="#142850" rx="0" transform="matrix(.78396 .66834 -.5944 .76884 324.311 63.23)"/><rect x="1713" y="89" width="13" height="26" fill="#142850" rx="0" transform="matrix(-.78605 .50069 -.63579 -.86721 3156.149 -580.359)"/><rect x="1905" y="679" width="8" height="16" fill="#0C7B93" rx="0" transform="matrix(.72528 .77786 -.677 .6527 935.894 -909.738)"/><rect x="1569" y="585" width="9" height="25" fill="#27496D" rx="0" transform="matrix(-.3797 .67614 -1.04219 -.77781 3077.483 390.65)"/><rect x="1042" y="53" width="8" height="18" fill="#142850" rx="0" transform="matrix(-1.07305 -.23653 -.42004 -1.02451 2325.024 712.794)"/><rect x="1261" y="601" width="11" height="24" fill="#142850" rx="0" transform="matrix(.80272 .50069 -.6069 .86721 502.092 -486.347)"/><rect x="1240" y="1027" width="9" height="26" fill="#0C7B93" rx="0" transform="matrix(.96906 .34538 -.23288 .94893 496.39 -551.615)"/><rect x="166" y="1329" width="9" height="18" fill="#00A8CC" rx="0" transform="matrix(.36797 .96573 -.91593 .31378 1189.483 783.564)"/><rect x="1988" y="1175" width="12" height="32" fill="#142850" rx="0" transform="matrix(-.60262 .85012 -.79974 -.53121 4129.773 -10.896)"/><rect x="147" y="848" width="8" height="17" fill="#00A8CC" rx="0" transform="matrix(-.73727 .60932 -.6628 -.8086 768.449 1480.967)"/><rect x="406" y="842" width="7" height="11" fill="#00A8CC" rx="0" transform="matrix(-.65301 .51117 -.82525 -.88537 1541.089 1475.571)"/><rect x="763" y="1154" width="13" height="22" fill="#27496D" rx="0" transform="matrix(.41953 1.05146 -.95106 0 1703.378 605.926)"/><rect x="1062" y="558" width="11" height="21" fill="#142850" rx="0" transform="matrix(.81915 .6887 -.57358 .73854 519.133 -436.521)"/><rect x="497" y="635" width="7" height="13" fill="#00A8CC" rx="0" transform="matrix(.5605 .74873 -.83092 .67416 742.876 -227.162)"/><rect x="200" y="617" width="12" height="34" fill="#27496D" rx="0" transform="matrix(.4354 .94276 -.89359 .36189 648.097 239.306)"/><rect x="643" y="1376" width="8" height="11" fill="#00A8CC" rx="0" transform="matrix(.51818 .90686 -.86107 .42288 1692.291 187.965)"/><rect x="1030" y="674" width="8" height="12" fill="#0C7B93" rx="0" transform="matrix(.95697 .24207 -.29285 .97089 180.983 -194.395)"/><rect x="1801" y="1334" width="11" height="30" fill="#142850" rx="0" transform="matrix(-.37693 .96651 -.93365 -.25898 3634.413 -110.733)"/><rect x="1749" y="165" width="13" height="23" fill="#27496D" rx="0" transform="matrix(-.47157 .92177 -.8847 -.39127 2701.75 -1280.603)"/><rect x="1531" y="272" width="7" height="18" fill="#0C7B93" rx="0" transform="matrix(-.28259 .88349 -.98163 -.46976 2302.966 -889.121)"/><rect x="476" y="1302" width="12" height="13" fill="#00A8CC" rx="0" transform="matrix(-.28272 .84805 -.98122 -.59381 2002.722 1805.892)"/><rect x="1122" y="1051" width="13" height="29" fill="#0C7B93" rx="0" transform="matrix(.84894 .5886 -.5305 .81013 755.343 -402.774)"/><rect x="682" y="924" width="10" height="27" fill="#0C7B93" rx="0" transform="matrix(-.34202 .82193 -.9397 -.66558 1802.93 1233.374)"/><rect x="919" y="1117" width="12" height="24" fill="#00A8CC" rx="0" transform="matrix(.54904 1.03967 -.94267 .0363 1803.3 391.56)"/><rect x="1981" y="107" width="10" height="25" fill="#00A8CC" rx="0" transform="matrix(.7876 .60218 -.61546 .79912 485.49 -1102.576)"/><rect x="1141" y="975" width="8" height="9" fill="#0C7B93" rx="0" transform="matrix(-.05224 .99614 -.99182 -.22998 2133.594 307.561)"/><rect x="1309" y="922" width="12" height="20" fill="#27496D" rx="0" transform="matrix(-.17327 1.00506 -.98285 -.07028 2472.314 -485.609)"/><rect x="1306" y="1254" width="8" height="19" fill="#142850" rx="0" transform="matrix(.6127 1.04155 -.85207 .18365 1794.48 118.088)"/></svg>